<?xml version="1.0" encoding="utf-8"?>
<!-- Generator: Adobe Illustrator 22.1.0, SVG Export Plug-In . SVG Version: 6.00 Build 0)  -->
<svg version="1.1" id="Capa_1" xmlns="http://www.w3.org/2000/svg" xmlns:xlink="http://www.w3.org/1999/xlink" x="0px" y="0px"
	 viewBox="0 0 1790.5 286" style="enable-background:new 0 0 1790.5 286;" xml:space="preserve">
<style type="text/css">
	.st0{fill:#45B549;}
	.st1{fill:#145632;}
	.st2{fill:#FFFFFF;}
</style>
<path class="st0" d="M129.2,69.1c78.7-8.6,104.3-58.4,104.3-58.4c1.3-2.5,4.4-3.5,6.8-2.2c1.3,0.6,2.2,1.8,2.6,3.1
	c26.2,88.7,11.9,149.8-18.2,186.2c-11.6,14.1-26.5,25.3-43.4,32.3c-15.5,6.6-32.4,9.5-49.3,8.3c-32.3-2.2-61.7-19.5-75.3-50.4
	c-3.5-7.9-5.8-16.3-6.7-24.8c-1.9-17.2,1.5-34.6,9.6-49.8c8.8-16.3,22.7-29.1,39.7-36.5C108.9,72.8,118.9,70.2,129.2,69.1
	L129.2,69.1z"/>
<path class="st1" d="M233,12.5c0.1-2.8,2.4-5,5.2-4.9c2.8,0.1,5,2.4,4.9,5.2c0,0.2,0,0.4-0.1,0.6c0,0.3-4.5,58.4-61.2,117.3
	l-0.6,0.6c-13.4,13.7-28,26-43.7,36.9l34.1,6.3c2.7,0.6,4.4,3.4,3.8,6.1c-0.6,2.4-2.9,4.1-5.4,3.8l-44.5-8.3
	C84.9,201.8,16.1,225.5,10.1,281.5c-0.3,2.8-2.9,4.7-5.7,4.3c-2.6-0.3-4.5-2.7-4.4-5.4c7.2-67.1,75.4-84.3,121.4-113.7l0.6-0.4
	c18.4-11.6,35.4-25.3,50.7-40.6l-4-39.9c-0.3-2.8,1.6-5.3,4.3-5.7c2.7-0.4,5.3,1.6,5.7,4.3c0,0.1,0,0.2,0,0.3l3.1,31
	C229.2,62.6,232.9,12.7,233,12.5L233,12.5z"/>
<g>
	<path class="st2" d="M407.5,76.2c60.7,0,103.6,43.6,103.6,104.9s-42.9,104.9-103.6,104.9c-23,0-43.4-7.7-59.4-21.1l-6.4,14.7h-50.3
		V11.1h67.1v78.7C372.7,81.1,389.3,76.2,407.5,76.2L407.5,76.2z M442.6,181.1c0-25.8-18.7-45-44.2-45c-25.5,0-44.2,19.2-44.2,45
		c0,25.6,18.7,44.8,44.2,44.8C423.7,225.8,442.6,206.6,442.6,181.1z"/>
	<path class="st2" d="M752.1,82.1v197.1h-52.5l-5.8-13.9c-16.1,13.1-36.6,20.6-59.4,20.6c-60.3,0-103.4-44-103.4-105.3
		c0-61.1,43.1-104.5,103.4-104.5c23.2,0,44,7.8,60.3,21.2l7-15.3L752.1,82.1z M687.4,180.9c0-25.6-18.7-44.8-44.2-44.8
		c-25.6,0-44.2,19.2-44.2,44.8c0,25.8,18.7,45,44.2,45C668.8,225.8,687.4,206.6,687.4,180.9z"/>
	<path class="st2" d="M870.9,286c-53.7,0-86.4-28.4-87-71.1h65.4c0,14.4,10.1,21.1,22.9,21.1c10,0,19.3-5.1,19.3-15.3
		c0-11.3-15-14.7-33.9-17.8c-30.6-5-71.1-14.1-71.1-62c0-39.5,33.7-65.1,84.2-65.1c50.2,0,82.7,26.7,83.5,66.6h-63.6
		c0-12.6-8.4-18.4-20.8-18.4c-10.9,0-18.2,5.4-18.2,14.5c0,11.2,15.1,13.8,33.8,17.1c31.2,5.5,72.5,12.1,72.5,62
		C958,259,923.3,286,870.9,286L870.9,286z"/>
	<path class="st2" d="M989.8,82.3h67.9v197.1h-67.9V82.3z M990.3,0h66.8v57.7h-66.8V0z"/>
	<path class="st2" d="M1100.4,11.1h67.9v268.3h-67.9V11.1z"/>
	<path class="st2" d="M1211.1,82.3h67.9v197.1h-67.9V82.3z M1211.6,0h66.8v57.7h-66.8V0z"/>
	<path class="st2" d="M1419.2,286c-63.2,0-108.9-44.3-108.9-105.3s45.4-104.4,109.1-104.4c55.4,0,97,34.9,104.3,87.4h-66.1
		c-5.7-16.1-20.8-26.5-38.4-26.5c-23.9,0-40.8,18.1-40.8,43.9s17.1,44.3,40.8,44.3c18.2,0,32.9-11.1,38.6-28.8h66.7
		C1516.9,249.9,1474.7,286,1419.2,286L1419.2,286z"/>
	<path class="st2" d="M1542.3,180.9c0-61.1,46.2-105.1,110.6-105.1c64.1,0,110.6,44,110.6,105.1c0,60.9-46.5,105.1-110.6,105.1
		C1588.6,286,1542.3,241.8,1542.3,180.9z M1652.9,225c24.7,0,42.5-18,42.5-44.1c0-25.9-17.8-44.1-42.5-44.1
		c-24.7,0-42.5,18-42.5,44.1S1628.2,225,1652.9,225L1652.9,225z"/>
</g>
</svg>
